<svg width="24" height="24" viewBox="0 0 24 24" fill="none" xmlns="http://www.w3.org/2000/svg">
<g clip-path="url(#clip0_49_295)">
<path fill-rule="evenodd" clip-rule="evenodd" d="M8.625 14.25C8.00368 14.25 7.5 13.7463 7.5 13.125C7.5 12.5037 8.00368 12 8.625 12C9.24632 12 9.75 12.5037 9.75 13.125C9.75 13.7463 9.24632 14.25 8.625 14.25V14.25ZM15.375 12C14.7537 12 14.25 12.5037 14.25 13.125C14.25 13.7463 14.7537 14.25 15.375 14.25C15.9963 14.25 16.5 13.7463 16.5 13.125C16.5 12.5037 15.9963 12 15.375 12V12ZM21.75 12C21.75 17.3848 17.3848 21.75 12 21.75C6.61522 21.75 2.25 17.3848 2.25 12C2.25 6.61522 6.61522 2.25 12 2.25C17.3824 2.25568 21.7443 6.61758 21.75 12V12ZM20.25 12C20.25 7.44365 16.5563 3.75 12 3.75C7.44365 3.75 3.75 7.44365 3.75 12C3.75 16.5563 7.44365 20.25 12 20.25C16.5542 20.2448 20.2448 16.5542 20.25 12V12ZM16.0837 7.62563L12 10.3491L7.91625 7.63031C7.69318 7.4816 7.40772 7.46319 7.1674 7.58202C6.92708 7.70084 6.7684 7.93885 6.75115 8.20639C6.7339 8.47393 6.86068 8.73035 7.08375 8.87906L11.5837 11.8791C11.8358 12.0472 12.1642 12.0472 12.4163 11.8791L16.9163 8.87906C17.2611 8.64917 17.3543 8.18327 17.1244 7.83844C16.8945 7.4936 16.4286 7.40042 16.0837 7.63031V7.62563ZM14.6653 16.6256C13.875 16.0997 13.1194 15.75 12 15.75C10.8806 15.75 10.125 16.0997 9.33469 16.6256C8.99806 16.8581 8.90985 17.3175 9.13643 17.6581C9.36301 17.9988 9.82077 18.095 10.1653 17.8744C10.7747 17.4694 11.25 17.25 12 17.25C12.75 17.25 13.2253 17.4694 13.8347 17.8744C14.0577 18.0284 14.3465 18.0501 14.5901 17.9311C14.8337 17.8122 14.9941 17.571 15.0097 17.3004C15.0252 17.0298 14.8936 16.7718 14.6653 16.6256V16.6256Z" fill="#121714"/>
</g>
<defs>
<clipPath id="clip0_49_295">
<rect width="24" height="24" fill="white"/>
</clipPath>
</defs>
</svg>
