<svg width="24" height="24" viewBox="0 0 24 24" fill="none" xmlns="http://www.w3.org/2000/svg">
<g clip-path="url(#clip0_49_274)">
<path fill-rule="evenodd" clip-rule="evenodd" d="M12 2.25C6.61522 2.25 2.25 6.61522 2.25 12C2.25 17.3848 6.61522 21.75 12 21.75C17.3848 21.75 21.75 17.3848 21.75 12C21.7443 6.61758 17.3824 2.25568 12 2.25V2.25ZM12 20.25C7.44365 20.25 3.75 16.5563 3.75 12C3.75 7.44365 7.44365 3.75 12 3.75C16.5563 3.75 20.25 7.44365 20.25 12C20.2448 16.5542 16.5542 20.2448 12 20.25V20.25ZM7.5 10.125C7.5 9.50368 8.00368 9 8.625 9C9.24632 9 9.75 9.50368 9.75 10.125C9.75 10.7463 9.24632 11.25 8.625 11.25C8.00368 11.25 7.5 10.7463 7.5 10.125V10.125ZM16.5 10.125C16.5 10.7463 15.9963 11.25 15.375 11.25C14.7537 11.25 14.25 10.7463 14.25 10.125C14.25 9.50368 14.7537 9 15.375 9C15.9963 9 16.5 9.50368 16.5 10.125V10.125ZM16.3997 14.625C15.435 16.2928 13.8309 17.25 12 17.25C10.1691 17.25 8.56594 16.2938 7.60125 14.625C7.45346 14.3925 7.44502 14.0977 7.57928 13.8571C7.71353 13.6166 7.96887 13.469 8.24434 13.4727C8.5198 13.4764 8.77105 13.6309 8.89875 13.875C9.59906 15.0853 10.6997 15.75 12 15.75C13.3003 15.75 14.4009 15.0844 15.1003 13.875C15.3074 13.5162 15.7662 13.3932 16.125 13.6003C16.4838 13.8074 16.6068 14.2662 16.3997 14.625V14.625Z" fill="#121714"/>
</g>
<defs>
<clipPath id="clip0_49_274">
<rect width="24" height="24" fill="white"/>
</clipPath>
</defs>
</svg>
