<svg width="20" height="20" viewBox="0 0 20 20" fill="none" xmlns="http://www.w3.org/2000/svg">
<g clip-path="url(#clip0_4_34)">
<path fill-rule="evenodd" clip-rule="evenodd" d="M17.0961 8.10703L10.8461 2.21016C10.843 2.20749 10.8402 2.20462 10.8375 2.20156C10.3607 1.76792 9.6323 1.76792 9.15547 2.20156L9.14688 2.21016L2.90391 8.10703C2.64644 8.34378 2.49995 8.67757 2.5 9.02734V16.25C2.5 16.9404 3.05964 17.5 3.75 17.5H7.5C8.19036 17.5 8.75 16.9404 8.75 16.25V12.5H11.25V16.25C11.25 16.9404 11.8096 17.5 12.5 17.5H16.25C16.9404 17.5 17.5 16.9404 17.5 16.25V9.02734C17.5001 8.67757 17.3536 8.34378 17.0961 8.10703V8.10703ZM16.25 16.25H12.5V12.5C12.5 11.8096 11.9404 11.25 11.25 11.25H8.75C8.05964 11.25 7.5 11.8096 7.5 12.5V16.25H3.75V9.02734L3.75859 9.01953L10 3.125L16.2422 9.01797L16.2508 9.02578L16.25 16.25Z" fill="#0D1C14"/>
</g>
<defs>
<clipPath id="clip0_4_34">
<rect width="20" height="20" fill="white"/>
</clipPath>
</defs>
</svg>
