<svg width="24" height="24" viewBox="0 0 24 24" fill="none" xmlns="http://www.w3.org/2000/svg">
<g clip-path="url(#clip0_49_281)">
<path fill-rule="evenodd" clip-rule="evenodd" d="M12 2.25C6.61522 2.25 2.25 6.61522 2.25 12C2.25 17.3848 6.61522 21.75 12 21.75C17.3848 21.75 21.75 17.3848 21.75 12C21.7443 6.61758 17.3824 2.25568 12 2.25V2.25ZM12 20.25C7.44365 20.25 3.75 16.5563 3.75 12C3.75 7.44365 7.44365 3.75 12 3.75C16.5563 3.75 20.25 7.44365 20.25 12C20.2448 16.5542 16.5542 20.2448 12 20.25V20.25ZM7.5 10.125C7.5 9.50368 8.00368 9 8.625 9C9.24632 9 9.75 9.50368 9.75 10.125C9.75 10.7463 9.24632 11.25 8.625 11.25C8.00368 11.25 7.5 10.7463 7.5 10.125V10.125ZM16.5 10.125C16.5 10.7463 15.9963 11.25 15.375 11.25C14.7537 11.25 14.25 10.7463 14.25 10.125C14.25 9.50368 14.7537 9 15.375 9C15.9963 9 16.5 9.50368 16.5 10.125V10.125ZM16.3988 16.125C16.5465 16.3575 16.555 16.6523 16.4207 16.8929C16.2865 17.1334 16.0311 17.281 15.7557 17.2773C15.4802 17.2736 15.2289 17.1191 15.1012 16.875C14.4009 15.6647 13.3003 15 12 15C10.6997 15 9.59906 15.6656 8.89875 16.875C8.77105 17.1191 8.5198 17.2736 8.24434 17.2773C7.96887 17.281 7.71353 17.1334 7.57928 16.8929C7.44502 16.6523 7.45346 16.3575 7.60125 16.125C8.56594 14.4572 10.1691 13.5 12 13.5C13.8309 13.5 15.4341 14.4562 16.3988 16.125V16.125Z" fill="#121714"/>
</g>
<defs>
<clipPath id="clip0_49_281">
<rect width="24" height="24" fill="white"/>
</clipPath>
</defs>
</svg>
