<svg width="24" height="24" viewBox="0 0 24 24" fill="none" xmlns="http://www.w3.org/2000/svg">
<g clip-path="url(#clip0_49_302)">
<path fill-rule="evenodd" clip-rule="evenodd" d="M12 2.25C6.61522 2.25 2.25 6.61522 2.25 12C2.25 17.3848 6.61522 21.75 12 21.75C17.3848 21.75 21.75 17.3848 21.75 12C21.7443 6.61758 17.3824 2.25568 12 2.25V2.25ZM12 20.25C7.44365 20.25 3.75 16.5563 3.75 12C3.75 7.44365 7.44365 3.75 12 3.75C16.5563 3.75 20.25 7.44365 20.25 12C20.2448 16.5542 16.5542 20.2448 12 20.25V20.25ZM17.0306 15.2194C17.3237 15.5124 17.3237 15.9876 17.0306 16.2806C16.7376 16.5737 16.2624 16.5737 15.9694 16.2806L15 15.3103L14.0306 16.2806C13.8899 16.4215 13.6991 16.5006 13.5 16.5006C13.3009 16.5006 13.1101 16.4215 12.9694 16.2806L12 15.3103L11.0306 16.2806C10.8899 16.4215 10.6991 16.5006 10.5 16.5006C10.3009 16.5006 10.1101 16.4215 9.96937 16.2806L9 15.3103L8.03063 16.2806C7.73757 16.5737 7.26243 16.5737 6.96938 16.2806C6.67632 15.9876 6.67632 15.5124 6.96938 15.2194L8.46937 13.7194C8.61005 13.5785 8.80094 13.4994 9 13.4994C9.19906 13.4994 9.38995 13.5785 9.53063 13.7194L10.5 14.6897L11.4694 13.7194C11.6101 13.5785 11.8009 13.4994 12 13.4994C12.1991 13.4994 12.3899 13.5785 12.5306 13.7194L13.5 14.6897L14.4694 13.7194C14.6101 13.5785 14.8009 13.4994 15 13.4994C15.1991 13.4994 15.3899 13.5785 15.5306 13.7194L17.0306 15.2194ZM7.5 10.125C7.5 9.50368 8.00368 9 8.625 9C9.24632 9 9.75 9.50368 9.75 10.125C9.75 10.7463 9.24632 11.25 8.625 11.25C8.00368 11.25 7.5 10.7463 7.5 10.125V10.125ZM14.25 10.125C14.25 9.50368 14.7537 9 15.375 9C15.9963 9 16.5 9.50368 16.5 10.125C16.5 10.7463 15.9963 11.25 15.375 11.25C14.7537 11.25 14.25 10.7463 14.25 10.125V10.125Z" fill="#121714"/>
</g>
<defs>
<clipPath id="clip0_49_302">
<rect width="24" height="24" fill="white"/>
</clipPath>
</defs>
</svg>
